<mxfile host="app.diagrams.net" modified="2021-11-23T10:14:00.589Z" agent="5.0 (X11; Linux x86_64) AppleWebKit/537.36 (KHTML, like Gecko) Chrome/92.0.4515.131 Safari/537.36" etag="IgmQUEicb4pYaLEGnlgj" version="15.8.3" type="github">
  <diagram id="QgCVdUDp-5b1g2GkAyqE" name="Page-1">
    <mxGraphModel dx="1422" dy="806" grid="1" gridSize="10" guides="1" tooltips="1" connect="1" arrows="1" fold="1" page="1" pageScale="1" pageWidth="850" pageHeight="1100" math="0" shadow="0">
      <root>
        <mxCell id="0" />
        <mxCell id="1" parent="0" />
        <mxCell id="5JLn5M5rsdG01JWl1lNa-1" value="users" style="swimlane;fontStyle=0;childLayout=stackLayout;horizontal=1;startSize=26;horizontalStack=0;resizeParent=1;resizeParentMax=0;resizeLast=0;collapsible=1;marginBottom=0;align=center;fontSize=14;" vertex="1" parent="1">
          <mxGeometry x="40" y="330" width="270" height="146" as="geometry" />
        </mxCell>
        <mxCell id="5JLn5M5rsdG01JWl1lNa-2" value="id SERIAL PK" style="text;strokeColor=none;fillColor=none;spacingLeft=4;spacingRight=4;overflow=hidden;rotatable=0;points=[[0,0.5],[1,0.5]];portConstraint=eastwest;fontSize=12;" vertex="1" parent="5JLn5M5rsdG01JWl1lNa-1">
          <mxGeometry y="26" width="270" height="30" as="geometry" />
        </mxCell>
        <mxCell id="5JLn5M5rsdG01JWl1lNa-3" value="username VARCHAR(255) NOT NULL" style="text;strokeColor=none;fillColor=none;spacingLeft=4;spacingRight=4;overflow=hidden;rotatable=0;points=[[0,0.5],[1,0.5]];portConstraint=eastwest;fontSize=12;" vertex="1" parent="5JLn5M5rsdG01JWl1lNa-1">
          <mxGeometry y="56" width="270" height="30" as="geometry" />
        </mxCell>
        <mxCell id="5JLn5M5rsdG01JWl1lNa-4" value="email VARCHAR(255) NOT NULL" style="text;strokeColor=none;fillColor=none;spacingLeft=4;spacingRight=4;overflow=hidden;rotatable=0;points=[[0,0.5],[1,0.5]];portConstraint=eastwest;fontSize=12;" vertex="1" parent="5JLn5M5rsdG01JWl1lNa-1">
          <mxGeometry y="86" width="270" height="30" as="geometry" />
        </mxCell>
        <mxCell id="5JLn5M5rsdG01JWl1lNa-5" value="hashed_password VARCHAR(255) NOT NULL" style="text;strokeColor=none;fillColor=none;spacingLeft=4;spacingRight=4;overflow=hidden;rotatable=0;points=[[0,0.5],[1,0.5]];portConstraint=eastwest;fontSize=12;" vertex="1" parent="5JLn5M5rsdG01JWl1lNa-1">
          <mxGeometry y="116" width="270" height="30" as="geometry" />
        </mxCell>
        <mxCell id="5JLn5M5rsdG01JWl1lNa-19" value="travels" style="swimlane;fontStyle=0;childLayout=stackLayout;horizontal=1;startSize=26;horizontalStack=0;resizeParent=1;resizeParentMax=0;resizeLast=0;collapsible=1;marginBottom=0;align=center;fontSize=14;" vertex="1" parent="1">
          <mxGeometry x="280" y="12" width="185" height="296" as="geometry" />
        </mxCell>
        <mxCell id="5JLn5M5rsdG01JWl1lNa-20" value="id SERIAL PK" style="text;strokeColor=none;fillColor=none;spacingLeft=4;spacingRight=4;overflow=hidden;rotatable=0;points=[[0,0.5],[1,0.5]];portConstraint=eastwest;fontSize=12;" vertex="1" parent="5JLn5M5rsdG01JWl1lNa-19">
          <mxGeometry y="26" width="185" height="30" as="geometry" />
        </mxCell>
        <mxCell id="5JLn5M5rsdG01JWl1lNa-21" value="duration_days INT NOT NULL" style="text;strokeColor=none;fillColor=none;spacingLeft=4;spacingRight=4;overflow=hidden;rotatable=0;points=[[0,0.5],[1,0.5]];portConstraint=eastwest;fontSize=12;" vertex="1" parent="5JLn5M5rsdG01JWl1lNa-19">
          <mxGeometry y="56" width="185" height="30" as="geometry" />
        </mxCell>
        <mxCell id="5JLn5M5rsdG01JWl1lNa-22" value="price INT NOT NULL" style="text;strokeColor=none;fillColor=none;spacingLeft=4;spacingRight=4;overflow=hidden;rotatable=0;points=[[0,0.5],[1,0.5]];portConstraint=eastwest;fontSize=12;" vertex="1" parent="5JLn5M5rsdG01JWl1lNa-19">
          <mxGeometry y="86" width="185" height="30" as="geometry" />
        </mxCell>
        <mxCell id="5JLn5M5rsdG01JWl1lNa-23" value="party_size INT" style="text;strokeColor=none;fillColor=none;spacingLeft=4;spacingRight=4;overflow=hidden;rotatable=0;points=[[0,0.5],[1,0.5]];portConstraint=eastwest;fontSize=12;" vertex="1" parent="5JLn5M5rsdG01JWl1lNa-19">
          <mxGeometry y="116" width="185" height="30" as="geometry" />
        </mxCell>
        <mxCell id="5JLn5M5rsdG01JWl1lNa-24" value="complexity INT NOT NULL" style="text;strokeColor=none;fillColor=none;spacingLeft=4;spacingRight=4;overflow=hidden;rotatable=0;points=[[0,0.5],[1,0.5]];portConstraint=eastwest;fontSize=12;" vertex="1" parent="5JLn5M5rsdG01JWl1lNa-19">
          <mxGeometry y="146" width="185" height="30" as="geometry" />
        </mxCell>
        <mxCell id="5JLn5M5rsdG01JWl1lNa-25" value="title VARCHAR(255) NOT NULL" style="text;strokeColor=none;fillColor=none;spacingLeft=4;spacingRight=4;overflow=hidden;rotatable=0;points=[[0,0.5],[1,0.5]];portConstraint=eastwest;fontSize=12;" vertex="1" parent="5JLn5M5rsdG01JWl1lNa-19">
          <mxGeometry y="176" width="185" height="30" as="geometry" />
        </mxCell>
        <mxCell id="5JLn5M5rsdG01JWl1lNa-26" value="place INT FK NOT NULL" style="text;strokeColor=none;fillColor=none;spacingLeft=4;spacingRight=4;overflow=hidden;rotatable=0;points=[[0,0.5],[1,0.5]];portConstraint=eastwest;fontSize=12;" vertex="1" parent="5JLn5M5rsdG01JWl1lNa-19">
          <mxGeometry y="206" width="185" height="30" as="geometry" />
        </mxCell>
        <mxCell id="5JLn5M5rsdG01JWl1lNa-38" value="description TEXT NOT NULL" style="text;strokeColor=none;fillColor=none;spacingLeft=4;spacingRight=4;overflow=hidden;rotatable=0;points=[[0,0.5],[1,0.5]];portConstraint=eastwest;fontSize=12;" vertex="1" parent="5JLn5M5rsdG01JWl1lNa-19">
          <mxGeometry y="236" width="185" height="30" as="geometry" />
        </mxCell>
        <mxCell id="5JLn5M5rsdG01JWl1lNa-40" value="date DATE NOT NULL" style="text;strokeColor=none;fillColor=none;spacingLeft=4;spacingRight=4;overflow=hidden;rotatable=0;points=[[0,0.5],[1,0.5]];portConstraint=eastwest;fontSize=12;" vertex="1" parent="5JLn5M5rsdG01JWl1lNa-19">
          <mxGeometry y="266" width="185" height="30" as="geometry" />
        </mxCell>
        <mxCell id="5JLn5M5rsdG01JWl1lNa-27" value="places" style="swimlane;fontStyle=0;childLayout=stackLayout;horizontal=1;startSize=26;horizontalStack=0;resizeParent=1;resizeParentMax=0;resizeLast=0;collapsible=1;marginBottom=0;align=center;fontSize=14;" vertex="1" parent="1">
          <mxGeometry x="610" y="248" width="220" height="86" as="geometry" />
        </mxCell>
        <mxCell id="5JLn5M5rsdG01JWl1lNa-28" value="id SERIAL PK" style="text;strokeColor=none;fillColor=none;spacingLeft=4;spacingRight=4;overflow=hidden;rotatable=0;points=[[0,0.5],[1,0.5]];portConstraint=eastwest;fontSize=12;" vertex="1" parent="5JLn5M5rsdG01JWl1lNa-27">
          <mxGeometry y="26" width="220" height="30" as="geometry" />
        </mxCell>
        <mxCell id="5JLn5M5rsdG01JWl1lNa-29" value="name VARCHAR(255) NOT NULL" style="text;strokeColor=none;fillColor=none;spacingLeft=4;spacingRight=4;overflow=hidden;rotatable=0;points=[[0,0.5],[1,0.5]];portConstraint=eastwest;fontSize=12;" vertex="1" parent="5JLn5M5rsdG01JWl1lNa-27">
          <mxGeometry y="56" width="220" height="30" as="geometry" />
        </mxCell>
        <mxCell id="5JLn5M5rsdG01JWl1lNa-31" style="edgeStyle=orthogonalEdgeStyle;rounded=0;orthogonalLoop=1;jettySize=auto;html=1;exitX=1;exitY=0.5;exitDx=0;exitDy=0;entryX=0;entryY=0.5;entryDx=0;entryDy=0;" edge="1" parent="1" source="5JLn5M5rsdG01JWl1lNa-26" target="5JLn5M5rsdG01JWl1lNa-27">
          <mxGeometry relative="1" as="geometry" />
        </mxCell>
        <mxCell id="5JLn5M5rsdG01JWl1lNa-32" value="users_travels" style="swimlane;fontStyle=0;childLayout=stackLayout;horizontal=1;startSize=26;horizontalStack=0;resizeParent=1;resizeParentMax=0;resizeLast=0;collapsible=1;marginBottom=0;align=center;fontSize=14;" vertex="1" parent="1">
          <mxGeometry x="350" y="560" width="160" height="86" as="geometry" />
        </mxCell>
        <mxCell id="5JLn5M5rsdG01JWl1lNa-33" value="user_id INT FK" style="text;strokeColor=none;fillColor=none;spacingLeft=4;spacingRight=4;overflow=hidden;rotatable=0;points=[[0,0.5],[1,0.5]];portConstraint=eastwest;fontSize=12;" vertex="1" parent="5JLn5M5rsdG01JWl1lNa-32">
          <mxGeometry y="26" width="160" height="30" as="geometry" />
        </mxCell>
        <mxCell id="5JLn5M5rsdG01JWl1lNa-34" value="travel_id INT FK" style="text;strokeColor=none;fillColor=none;spacingLeft=4;spacingRight=4;overflow=hidden;rotatable=0;points=[[0,0.5],[1,0.5]];portConstraint=eastwest;fontSize=12;" vertex="1" parent="5JLn5M5rsdG01JWl1lNa-32">
          <mxGeometry y="56" width="160" height="30" as="geometry" />
        </mxCell>
        <mxCell id="5JLn5M5rsdG01JWl1lNa-36" style="edgeStyle=orthogonalEdgeStyle;rounded=0;orthogonalLoop=1;jettySize=auto;html=1;exitX=0;exitY=0.5;exitDx=0;exitDy=0;entryX=1;entryY=0.5;entryDx=0;entryDy=0;" edge="1" parent="1" source="5JLn5M5rsdG01JWl1lNa-33" target="5JLn5M5rsdG01JWl1lNa-2">
          <mxGeometry relative="1" as="geometry" />
        </mxCell>
        <mxCell id="5JLn5M5rsdG01JWl1lNa-37" style="edgeStyle=orthogonalEdgeStyle;rounded=0;orthogonalLoop=1;jettySize=auto;html=1;exitX=1;exitY=0.5;exitDx=0;exitDy=0;entryX=1;entryY=0.5;entryDx=0;entryDy=0;" edge="1" parent="1" source="5JLn5M5rsdG01JWl1lNa-34" target="5JLn5M5rsdG01JWl1lNa-20">
          <mxGeometry relative="1" as="geometry" />
        </mxCell>
      </root>
    </mxGraphModel>
  </diagram>
</mxfile>
